<?xml version="1.0" encoding="utf-8"?>
<!-- Generator: Adobe Illustrator 22.0.0, SVG Export Plug-In . SVG Version: 6.00 Build 0)  -->
<svg version="1.1" id="background" xmlns="http://www.w3.org/2000/svg" xmlns:xlink="http://www.w3.org/1999/xlink" x="0px" y="0px"
	 viewBox="0 0 910.7 527.4" style="enable-background:new 0 0 910.7 527.4;" xml:space="preserve">
<style type="text/css">
	.st0{opacity:0.5;}
	.st1{fill:url(#SVGID_1_);}
	.st2{fill:#1C1818;}
	.st3{fill:#21213D;}
	.st4{fill:#332F2F;}
	.st5{fill:url(#SVGID_2_);}
	.st6{fill:url(#SVGID_3_);}
	.st7{fill:url(#SVGID_4_);}
	.st8{fill:#333333;}
	.st9{fill:#6C63FF;}
	.st10{fill:#FDA57D;}
	.st11{fill:#E0E0E0;}
	.st12{opacity:5.000000e-02;enable-background:new    ;}
</style>
<rect width="910.7" height="527.4"/>
<title>notes1</title>
<g class="st0">
	
		<linearGradient id="SVGID_1_" gradientUnits="userSpaceOnUse" x1="209.98" y1="239.17" x2="209.98" y2="530" gradientTransform="matrix(1 0 0 -1 0 530)">
		<stop  offset="0" style="stop-color:#808080;stop-opacity:0.25"/>
		<stop  offset="0.54" style="stop-color:#808080;stop-opacity:0.12"/>
		<stop  offset="1" style="stop-color:#808080;stop-opacity:0.1"/>
	</linearGradient>
	<rect class="st1" width="420" height="290.8"/>
</g>
<rect x="4.3" y="4.3" class="st2" width="412.4" height="283.2"/>
<g class="st0">
	<circle class="st3" cx="71.3" cy="100.4" r="7.6"/>
	<circle class="st3" cx="71.3" cy="146" r="7.6"/>
	<circle class="st3" cx="71.3" cy="191.5" r="7.6"/>
</g>
<rect x="127.2" y="96" class="st4" width="230.1" height="8.7"/>
<rect x="127.2" y="141.6" class="st4" width="230.1" height="8.7"/>
<rect x="127.2" y="187.2" class="st4" width="230.1" height="8.7"/>
<g class="st0">
	
		<linearGradient id="SVGID_2_" gradientUnits="userSpaceOnUse" x1="356.48" y1="120.89" x2="356.48" y2="411.72" gradientTransform="matrix(1 0 0 -1 0 530)">
		<stop  offset="0" style="stop-color:#808080;stop-opacity:0.25"/>
		<stop  offset="0.54" style="stop-color:#808080;stop-opacity:0.12"/>
		<stop  offset="1" style="stop-color:#808080;stop-opacity:0.1"/>
	</linearGradient>
	<rect x="146.5" y="118.3" class="st5" width="420" height="290.8"/>
</g>
<rect x="150.8" y="122.6" class="st2" width="412.4" height="283.2"/>
<g>
	<circle class="st3" cx="217.9" cy="218.7" r="7.6"/>
	<circle class="st3" cx="217.9" cy="264.2" r="7.6"/>
	<circle class="st3" cx="217.9" cy="309.8" r="7.6"/>
</g>
<rect x="273.7" y="214.3" class="st4" width="230.1" height="8.7"/>
<rect x="273.7" y="259.9" class="st4" width="230.1" height="8.7"/>
<rect x="273.7" y="305.5" class="st4" width="230.1" height="8.7"/>
<g class="st0">
	
		<linearGradient id="SVGID_3_" gradientUnits="userSpaceOnUse" x1="502.98" y1="2.6" x2="502.98" y2="293.43" gradientTransform="matrix(1 0 0 -1 0 530)">
		<stop  offset="0" style="stop-color:#808080;stop-opacity:0.25"/>
		<stop  offset="0.54" style="stop-color:#808080;stop-opacity:0.12"/>
		<stop  offset="1" style="stop-color:#808080;stop-opacity:0.1"/>
	</linearGradient>
	<rect x="293" y="236.6" class="st6" width="420" height="290.8"/>
</g>
<rect x="297.3" y="240.9" class="st2" width="412.4" height="283.2"/>
<circle class="st3" cx="364.4" cy="336.9" r="7.6"/>
<circle class="st3" cx="364.4" cy="382.5" r="7.6"/>
<circle class="st3" cx="364.4" cy="428.1" r="7.6"/>
<rect x="420.2" y="332.6" class="st4" width="230.1" height="8.7"/>
<rect x="420.2" y="378.2" class="st4" width="230.1" height="8.7"/>
<rect x="420.2" y="423.8" class="st4" width="230.1" height="8.7"/>
<g class="st0">
	
		<linearGradient id="SVGID_4_" gradientUnits="userSpaceOnUse" x1="912.1397" y1="-158.89" x2="912.1397" y2="248.2122" gradientTransform="matrix(1 0 0 -1 -144.63 343.7)">
		<stop  offset="0" style="stop-color:#808080;stop-opacity:0.25"/>
		<stop  offset="0.54" style="stop-color:#808080;stop-opacity:0.12"/>
		<stop  offset="1" style="stop-color:#808080;stop-opacity:0.1"/>
	</linearGradient>
	<path class="st7" d="M902.1,232.7c-3-0.2-6.1-2.3-6.4-5.2c-0.4-3.6,3-6.2,5.1-9.1c3.7-5.2,3.3-12.6-0.1-18s-9.2-9-15.3-10.8
		c-5.1-1.5-11-2.4-14-6.8c-4.7-7.2,2.6-16.2,3.2-24.8c0.6-8.2-6.2-16.2-14.3-17c-4.7-0.5-10.3,1-13.7-2.3c-0.9-1-1.7-2.1-2.1-3.4
		c-2.2-5.7-1.2-12.1-0.9-18.2s-0.6-13-5.3-16.9c-2.7-2.3-6.3-3.2-9.8-3.7c-10.6-1.7-21.4-1.1-32.1,0.4c-14.8,2.2-30.2,6.8-40,18.1
		s-11.1,30.9,0.8,40c-1-0.8-0.6-2.6,0.9-4.7c0,0.2,0,0.4,0,0.6c0,12.6,7.9,23.9,19.7,28.2v2.1c-2.2,0.5-4.2,1.4-6.1,2.6
		c-20.1,5-60.4,29.8-60.4,29.8l-59.2,10c0,0-29,4.5-27.9,8.9s27.9,1.1,27.9,1.1H712c5.4,0,10.8-1.4,15.5-4l32.7-18
		c-0.2,2.6-0.2,5.3-0.3,8c-5.2,3.7-10.2,11.8,0.4,28.4l0.1-0.5c0,0.1,0,0.3,0,0.5l-11.9,54.8c-3.6,2.7-6.1,5.2-5.2,6.5
		c0.5,0.8,1.8,0.9,3.7,0.6l-16.5,76l46.1,55.7l7.7,44.1l-7.3,7l-26.9,5c-1.3,0.2-2.2,1.5-2,2.8c0.2,1.2,1.2,2,2.4,2h58.9v-11.1h0.5
		l-1-13.3l18.6-12.2l-6.1-9.3l-0.9,0.6l-14.9-20.8l-2.5-32.8l27.2-98.5l0,0V305l0,0l-6.7-27.5l11.7-5.9c7.6-3.9,11.2-12.8,8.5-20.9
		c-1.8-5.2-4-11.3-6.6-17.5c3.9,3.9,8.3,7.1,13.2,9.5c19.4,9.1,42.6,0.4,60-12.1C908,231.7,905.1,232.9,902.1,232.7z M818.6,255.8
		l-4.2-17.1l5.6,14.4C819.4,254.5,818.8,255.5,818.6,255.8L818.6,255.8z M795.5,181.4v-1.3c3.9-0.9,7.5-2.6,10.7-5
		c-0.3,4.5,0.2,9,1.3,13.4C804.8,185.1,801,182.7,795.5,181.4L795.5,181.4z M764.2,378L788,309l-14.6,81.8L764.2,378z"/>
</g>
<path class="st8" d="M820.2,452.3l-20.9,13.7L775.2,489c-0.8,0.8-1,2-0.3,3l0,0c0.7,1.1,2.2,1.4,3.3,0.7c0,0,0,0,0,0l48-31.4
	L820.2,452.3z"/>
<path class="st9" d="M777,205.1l-48.3,26.5c-4.6,2.5-9.8,3.9-15.1,3.9h-58.2v-9.8l57.5-9.8c0,0,65.1-40.1,69.4-27.1
	S777,205.1,777,205.1z"/>
<path class="st9" d="M828.8,304.9h-80.1l12-55.3c0-30.1-6-65.9,24.1-65.9l0,0c30.1,0,26.9,20.6,26.9,50.7L828.8,304.9z"/>
<path class="st10" d="M777.6,162.7h17.1l0,0v23.7c0,4.3-3.5,7.9-7.9,7.9h-1.3c-4.3,0-7.9-3.5-7.9-7.9V162.7L777.6,162.7z"/>
<polygon class="st11" points="748.7,304.8 731.6,383.7 801.3,467.8 819.7,453.3 764.2,375.8 788.8,304.8 "/>
<polygon class="st2" points="748.7,304.8 731.6,383.7 801.3,467.8 819.7,453.3 764.2,375.8 788.8,304.8 "/>
<polygon class="st2" points="788.1,304.8 770.5,403.7 784.9,486.1 809,486.1 802.4,400.8 828.8,304.8 "/>
<path class="st9" d="M770.5,219.2"/>
<path class="st12" d="M817.1,257.2l-53.2,38l4.3,7.6l62.2-31.5c7.4-3.8,11-12.4,8.2-20.3C831.3,229.4,817.1,257.2,817.1,257.2z"/>
<path class="st12" d="M802.8,213.4l17.5,44.9l-54.2,31.4l5.4,14.1l62.2-31.5c7.4-3.8,11-12.4,8.2-20.3
	c-7.4-21.5-22.7-59.4-35.7-50.5C802.5,204.2,801.1,209.1,802.8,213.4z"/>
<path class="st9" d="M801.8,211.2l17.5,44.9l-53.2,35.8l3.2,9.8l63.2-31.5c7.4-3.8,11-12.4,8.2-20.3c-7.4-21.5-22.7-59.4-35.7-50.5
	C801.4,202.1,800,207,801.8,211.2z"/>
<path class="st8" d="M808.5,486.2h-25l-32.8,6.2c-1.1,0.2-1.9,1.2-1.9,2.3l0,0c0,1.3,1.1,2.4,2.4,2.4h57.3L808.5,486.2z"/>
<path class="st12" d="M804.1,213.8c0,0,13,17.4,10.8,30.4"/>
<path class="st12" d="M777.6,184.7c5.5,2,11.4,2.3,17.1,0.9v-20.8h-17.1V184.7z"/>
<circle class="st10" cx="787.7" cy="155.1" r="29.2"/>
<path class="st10" d="M655.4,225.7c0,0-28.2,4.3-27.1,8.7s27.1,1.1,27.1,1.1V225.7z"/>
<path class="st10" d="M766.8,292.1c0,0-25.3,13.3-22.8,17.1s26-7.8,26-7.8L766.8,292.1z"/>
<path class="st9" d="M766.1,219.2c0,0-21.9,4.8-5.5,30.4"/>
<path class="st12" d="M792.2,221.4c0,0-21.9,4.8-5.5,30.4"/>
<path class="st9" d="M793.3,221.4c0,0-21.9,4.8-5.5,30.4"/>
<path class="st8" d="M809.4,164.4c-5.8,9.4-5.4,21.5-1.6,31.8s10.7,19.1,17.7,27.6c6.6,7.9,13.6,16,22.9,20.3
	c18.8,8.9,41.4,0.4,58.4-11.7c-2.7,1.1-5.5,2.3-8.4,2.1s-5.9-2.2-6.2-5.1c-0.3-3.5,3-6,5-8.8c3.6-5,3.2-12.3-0.1-17.5
	s-8.9-8.7-14.9-10.5c-4.9-1.5-10.7-2.3-13.6-6.6c-4.6-7,2.5-15.7,3.1-24.1c0.6-7.9-6-15.7-13.9-16.5c-4.6-0.4-10,1-13.3-2.2
	c-0.9-0.9-1.6-2.1-2-3.3c-2.1-5.5-1.1-11.7-0.9-17.7s-0.5-12.6-5.1-16.4c-2.7-2.2-6.1-3.1-9.5-3.6c-10.3-1.7-20.8-1.1-31.2,0.4
	c-14.4,2.1-29.4,6.6-38.9,17.6s-10.8,30,0.7,38.9c-4.1-3.1,15.8-21.7,25.1-16C793.4,149.5,793.6,165.1,809.4,164.4z"/>
</svg>
